<?xml version="1.0" encoding="UTF-8"?>
<svg version="1.1" xmlns="http://www.w3.org/2000/svg" width="48" height="48">
<path d="M0,0 L2,0 L2,1 L4,1 L4,2 L6,2 L6,3 L8,3 L8,4 L10,4 L10,5 L11,5 L11,11 L13,11 L13,10 L21,10 L21,11 L24,11 L24,12 L26,12 L26,13 L28,13 L28,14 L29,14 L29,15 L30,15 L30,16 L31,16 L31,17 L32,17 L32,18 L33,18 L33,20 L34,20 L34,22 L35,22 L35,25 L36,25 L36,33 L35,33 L35,36 L34,36 L34,38 L33,38 L33,40 L32,40 L32,41 L31,41 L31,42 L30,42 L30,43 L29,43 L29,44 L28,44 L28,45 L26,45 L26,46 L24,46 L24,47 L21,47 L21,48 L13,48 L13,47 L10,47 L10,46 L8,46 L8,45 L6,45 L6,44 L5,44 L5,43 L4,43 L4,42 L3,42 L3,41 L2,41 L2,40 L1,40 L1,38 L0,38 L0,36 L-1,36 L-1,33 L-2,33 L-2,25 L-1,25 L-1,22 L0,22 L0,20 L1,20 L1,18 L2,18 L2,17 L3,17 L3,16 L4,16 L4,15 L5,15 L5,14 L6,14 L6,13 L8,13 L8,12 L9,12 L9,8 L7,8 L7,7 L5,7 L5,6 L3,6 L3,5 L2,5 L2,16 L1,16 L1,17 L0,17 L0,18 L-5,18 L-5,17 L-6,17 L-6,13 L-5,13 L-5,12 L-4,12 L-4,11 L0,11 Z M16,27 L16,28 L15,28 L15,31 L18,31 L18,30 L19,30 L19,27 Z " fill="#B7B7B7" transform="translate(9,0)"/>
<path d="M0,0 L2,0 L2,1 L4,1 L4,2 L6,2 L6,3 L8,3 L8,4 L10,4 L10,5 L11,5 L11,17 L12,17 L12,19 L13,19 L13,21 L14,21 L14,23 L15,23 L15,24 L13,24 L13,25 L12,25 L12,27 L11,27 L11,33 L9,33 L9,34 L7,34 L7,35 L5,35 L5,36 L3,36 L3,37 L0,37 L0,36 L-1,36 L-1,33 L-2,33 L-2,25 L-1,25 L-1,22 L0,22 L0,20 L1,20 L1,18 L2,18 L2,17 L3,17 L3,16 L4,16 L4,15 L5,15 L5,14 L6,14 L6,13 L8,13 L8,12 L9,12 L9,8 L7,8 L7,7 L5,7 L5,6 L3,6 L3,5 L2,5 L2,16 L1,16 L1,17 L0,17 L0,18 L-5,18 L-5,17 L-6,17 L-6,13 L-5,13 L-5,12 L-4,12 L-4,11 L0,11 Z " fill="#BDBDBD" transform="translate(9,0)"/>
<path d="M0,0 L8,0 L8,1 L11,1 L11,2 L13,2 L13,3 L15,3 L15,4 L16,4 L16,5 L17,5 L17,6 L18,6 L18,7 L19,7 L19,8 L20,8 L20,10 L21,10 L21,12 L22,12 L22,15 L23,15 L23,23 L21,23 L21,22 L15,22 L15,21 L11,21 L11,17 L9,17 L9,15 L8,15 L8,14 L6,14 L6,13 L1,13 L1,11 L0,11 L0,9 L-1,9 L-1,7 L-2,7 L-2,1 L0,1 Z " fill="#C7C7C7" transform="translate(22,10)"/>
<path d="M0,0 L1,0 L1,1 L2,1 L2,2 L3,2 L3,4 L4,4 L4,6 L5,6 L5,9 L6,9 L6,17 L4,17 L4,16 L-2,16 L-2,15 L-6,15 L-6,11 L-8,11 L-8,9 L-9,9 L-9,8 L-8,8 L-8,7 L-7,7 L-7,6 L-6,6 L-6,5 L-5,5 L-5,4 L-3,4 L-3,3 L-2,3 L-2,2 L-1,2 L-1,1 L0,1 Z " fill="#B3B3B3" transform="translate(39,16)"/>
<path d="M0,0 L2,0 L2,1 L4,1 L4,2 L6,2 L6,3 L8,3 L8,4 L10,4 L10,5 L11,5 L11,21 L10,21 L10,22 L9,22 L9,23 L4,23 L4,20 L6,20 L6,19 L7,19 L7,18 L8,18 L8,17 L9,17 L9,8 L7,8 L7,7 L5,7 L5,6 L3,6 L3,5 L2,5 L2,16 L1,16 L1,17 L0,17 L0,18 L-5,18 L-5,17 L-6,17 L-6,13 L-5,13 L-5,12 L-4,12 L-4,11 L0,11 Z " fill="#3A3A3A" transform="translate(9,0)"/>
<path d="M0,0 L4,0 L4,1 L6,1 L6,2 L7,2 L7,4 L8,4 L8,8 L7,8 L7,10 L6,10 L6,11 L4,11 L4,12 L0,12 L0,11 L-2,11 L-2,10 L-3,10 L-3,8 L-4,8 L-4,4 L-3,4 L-3,2 L-2,2 L-2,1 L0,1 Z M1,4 L1,5 L0,5 L0,8 L3,8 L3,7 L4,7 L4,4 Z " fill="#424242" transform="translate(24,23)"/>
<path d="M0,0 L1,0 L1,4 L5,4 L5,5 L11,5 L11,6 L12,6 L12,9 L11,9 L11,11 L10,11 L10,13 L9,13 L9,14 L8,14 L8,15 L7,15 L7,13 L6,13 L6,12 L5,12 L5,11 L4,11 L4,10 L3,10 L3,9 L2,9 L2,8 L1,8 L1,7 L0,7 L0,6 L-1,6 L-1,4 L0,4 Z " fill="#A5A5A5" transform="translate(32,27)"/>
<path d="M0,0 L3,0 L3,1 L5,1 L5,2 L7,2 L7,3 L8,3 L8,4 L9,4 L9,6 L8,6 L8,7 L7,7 L7,8 L6,8 L6,9 L4,9 L4,10 L3,10 L3,11 L2,11 L2,12 L1,12 L1,13 L-2,13 L-2,12 L-6,12 L-6,11 L-1,11 L-1,7 L0,7 L0,3 L1,3 L1,1 L0,1 Z " fill="#BB95BB" transform="translate(30,11)"/>
<path d="M0,0 L1,0 L1,2 L2,2 L2,3 L4,3 L4,4 L2,4 L2,5 L1,5 L1,6 L0,6 L0,7 L-1,7 L-1,9 L-2,9 L-2,10 L-3,10 L-3,11 L-4,11 L-4,13 L-3,13 L-3,14 L-5,14 L-5,13 L-6,13 L-6,12 L-7,12 L-7,11 L-8,11 L-8,10 L-9,10 L-9,9 L-10,9 L-10,7 L-11,7 L-11,6 L-8,6 L-8,5 L-6,5 L-6,4 L-4,4 L-4,3 L-2,3 L-2,2 L0,2 Z " fill="#BE94BE" transform="translate(20,31)"/>
<path d="M0,0 L2,0 L2,7 L1,7 L1,12 L-3,12 L-3,11 L-5,11 L-5,9 L-6,9 L-6,7 L-5,7 L-5,6 L-4,6 L-4,5 L-3,5 L-3,3 L-2,3 L-2,2 L-1,2 L-1,1 L0,1 Z " fill="#E9C7AF" transform="translate(22,35)"/>
<path d="M0,0 L4,0 L4,1 L2,1 L2,4 L3,4 L3,8 L4,8 L4,11 L5,11 L5,12 L6,12 L6,13 L-2,13 L-2,12 L-1,12 L-1,7 L0,7 Z " fill="#A1A1A1" transform="translate(24,35)"/>
<path d="M0,0 L1,0 L1,1 L2,1 L2,2 L3,2 L3,5 L1,5 L1,6 L-1,6 L-1,7 L-3,7 L-3,8 L-5,8 L-5,9 L-9,9 L-9,8 L-8,8 L-8,7 L-7,7 L-7,6 L-6,6 L-6,5 L-5,5 L-5,4 L-3,4 L-3,3 L-2,3 L-2,2 L-1,2 L-1,1 L0,1 Z " fill="#95EFC2" transform="translate(39,16)"/>
<path d="M0,0 L1,0 L1,5 L12,5 L12,6 L10,6 L10,7 L7,7 L7,8 L4,8 L4,9 L2,9 L2,11 L1,11 L1,8 L0,8 Z " fill="#F6D0D0" transform="translate(7,25)"/>
<path d="M0,0 L3,0 L3,1 L4,1 L4,3 L3,3 L3,4 L2,4 L2,5 L1,5 L1,6 L-1,6 L-1,7 L-2,7 L-2,8 L-3,8 L-3,9 L-4,9 L-4,10 L-5,10 L-5,8 L-4,8 L-4,6 L-3,6 L-3,5 L-2,5 L-2,3 L-1,3 L-1,2 L0,2 Z " fill="#F7C7C7" transform="translate(35,14)"/>
<path d="M0,0 L3,0 L3,2 L1,2 L1,3 L-1,3 L-1,4 L-3,4 L-3,5 L-5,5 L-5,6 L-8,6 L-8,3 L-6,3 L-6,2 L-3,2 L-3,1 L0,1 Z " fill="#B4D5C4" transform="translate(17,31)"/>
<path d="M0,0 L2,0 L2,3 L3,3 L3,8 L4,8 L4,12 L3,12 L3,10 L2,10 L2,8 L1,8 L1,6 L0,6 Z " fill="#DDDDDD" transform="translate(20,11)"/>
<path d="M0,0 L1,0 L1,4 L-3,4 L-3,5 L-4,5 L-4,6 L-5,6 L-5,8 L-6,8 L-6,9 L-7,9 L-7,10 L-8,10 L-8,8 L-7,8 L-7,6 L-6,6 L-6,5 L-5,5 L-5,4 L-4,4 L-4,3 L-3,3 L-3,2 L-2,2 L-2,1 L0,1 Z " fill="#CFCFCF" transform="translate(17,12)"/>
<path d="M0,0 L2,0 L2,1 L3,1 L3,3 L2,3 L2,7 L1,7 L1,11 L0,11 Z " fill="#FFCC99" transform="translate(28,11)"/>
<path d="M0,0 L4,0 L4,1 L3,1 L3,2 L2,2 L2,3 L1,3 L1,4 L-1,4 L-1,6 L-2,6 L-2,2 L-1,2 L-1,1 L0,1 Z " fill="#838383" transform="translate(14,16)"/>
</svg>
