<?xml version="1.0" encoding="utf-8"?><!-- Uploaded to: SVG Repo, www.svgrepo.com, Generator: SVG Repo Mixer Tools -->
<svg width="800px" height="800px" viewBox="0 0 24 24" fill="none" xmlns="http://www.w3.org/2000/svg">
<path d="M6 17.7083C4.15875 16.0604 3 13.6655 3 11C3 6.02944 7.02944 2 12 2C16.9706 2 21 6.02944 21 11C21 13.6655 19.8412 16.0604 18 17.7083M7.80238 13.7177C7.29479 12.9353 7 12.0021 7 11C7 8.23858 9.23858 6 12 6C14.7614 6 17 8.23858 17 11C17 12.0008 16.706 12.9329 16.1996 13.7147M12 22C10.8954 22 10 21.1046 10 20V18C10 16.8954 10.8954 16 12 16C13.1046 16 14 16.8954 14 18V20C14 21.1046 13.1046 22 12 22ZM13 11C13 11.5523 12.5523 12 12 12C11.4477 12 11 11.5523 11 11C11 10.4477 11.4477 10 12 10C12.5523 10 13 10.4477 13 11Z" stroke="#000000" stroke-width="2" stroke-linecap="round" stroke-linejoin="round"/>
</svg>